<?xml version="1.0" encoding="UTF-8" standalone="no"?>
<!-- Created with Inkscape (http://www.inkscape.org/) -->

<svg
   xmlns:dc="http://purl.org/dc/elements/1.1/"
   xmlns:cc="http://creativecommons.org/ns#"
   xmlns:rdf="http://www.w3.org/1999/02/22-rdf-syntax-ns#"
   xmlns:svg="http://www.w3.org/2000/svg"
   xmlns="http://www.w3.org/2000/svg"
   xmlns:sodipodi="http://sodipodi.sourceforge.net/DTD/sodipodi-0.dtd"
   xmlns:inkscape="http://www.inkscape.org/namespaces/inkscape"
   width="25.4mm"
   height="25.399937mm"
   viewBox="0 0 89.999999 89.999775"
   id="svg4740"
   version="1.1"
   inkscape:version="0.91 r"
   sodipodi:docname="gear2.svg">
  <defs
     id="defs4742" />
  <sodipodi:namedview
     id="base"
     pagecolor="#ffffff"
     bordercolor="#666666"
     borderopacity="1.0"
     inkscape:pageopacity="0.0"
     inkscape:pageshadow="2"
     inkscape:zoom="3.959798"
     inkscape:cx="12.194094"
     inkscape:cy="89.927575"
     inkscape:document-units="px"
     inkscape:current-layer="layer1"
     showgrid="false"
     inkscape:window-width="1879"
     inkscape:window-height="1056"
     inkscape:window-x="41"
     inkscape:window-y="24"
     inkscape:window-maximized="1"
     fit-margin-top="0"
     fit-margin-left="0"
     fit-margin-right="0"
     fit-margin-bottom="0" />
  <metadata
     id="metadata4745">
    <rdf:RDF>
      <cc:Work
         rdf:about="">
        <dc:format>image/svg+xml</dc:format>
        <dc:type
           rdf:resource="http://purl.org/dc/dcmitype/StillImage" />
        <dc:title />
      </cc:Work>
    </rdf:RDF>
  </metadata>
  <g
     inkscape:label="Layer 1"
     inkscape:groupmode="layer"
     id="layer1"
     transform="translate(0.01998874,-0.23957716)">
    <g
       inkscape:label="Gear12"
       transform="matrix(0.99955577,0,0,0.99955324,407.67596,251.57581)"
       id="g2888"
       style="fill:#cccccc">
      <path
         inkscape:connector-curvature="0"
         style="fill:#cccccc;fill-opacity:0;stroke:#000000"
         d="m -331.36414,-211.05357 4.02,-0.59 2.357,0.229 6.65,3.01 0,3.952 -6.65,3.01 -2.357,0.229 -4.02,-0.59 -1.907,7.117 3.776,1.498 1.928,1.377 4.253,5.932 -1.976,3.422 -7.263,-0.718 -2.157,-0.98 -3.185,-2.521 -5.21,5.21 2.521,3.185 0.98,2.157 0.718,7.263 -3.422,1.976 -5.932,-4.253 -1.377,-1.928 -1.498,-3.776 -7.117,1.907 0.59,4.02 -0.229,2.357 -3.01,6.65 -3.952,0 -3.01,-6.65 -0.229,-2.357 0.59,-4.02 -7.117,-1.907 -1.498,3.776 -1.377,1.928 -5.932,4.253 -3.422,-1.976 0.718,-7.263 0.98,-2.157 2.521,-3.185 -5.21,-5.21 -3.185,2.521 -2.157,0.98 -7.263,0.718 -1.976,-3.422 4.253,-5.932 1.928,-1.377 3.776,-1.498 -1.907,-7.117 -4.02,0.59 -2.357,-0.229 -6.65,-3.01 0,-3.952 6.65,-3.01 2.357,-0.229 4.02,0.59 1.907,-7.117 -3.776,-1.498 -1.928,-1.377 -4.253,-5.932 1.976,-3.422 7.263,0.718 2.157,0.98 3.185,2.521 5.21,-5.21 -2.521,-3.185 -0.98,-2.157 -0.718,-7.263 3.422,-1.976 5.932,4.253 1.377,1.928 1.498,3.776 7.117,-1.907 -0.59,-4.02 0.229,-2.357 3.01,-6.65 3.952,0 3.01,6.65 0.229,2.357 -0.59,4.02 7.117,1.907 1.498,-3.776 1.377,-1.928 5.932,-4.253 3.422,1.976 -0.718,7.263 -0.98,2.157 -2.521,3.185 5.21,5.21 3.185,-2.521 2.157,-0.98 7.263,-0.718 1.976,3.422 -4.253,5.932 -1.928,1.377 -3.776,1.498 z"
         id="path2890" />
    </g>
    <circle
       style="opacity:1;fill:#cccccc;fill-opacity:0;stroke:#585858;stroke-width:2.5;stroke-miterlimit:4;stroke-dasharray:none;stroke-opacity:1"
       id="path4800"
       cx="44.980011"
       cy="45.239464"
       r="6.5732965" />
  </g>
</svg>
